<svg width="200" height="200" viewBox="0 0 200 200" fill="none" xmlns="http://www.w3.org/2000/svg">
  <!-- Background circle -->
  <circle cx="100" cy="100" r="90" fill="url(#gradient)" />
  
  <!-- Trail/Path design -->
  <path d="M 60 120 Q 80 80, 100 100 T 140 80" stroke="white" stroke-width="8" stroke-linecap="round" fill="none" opacity="0.8"/>
  <path d="M 70 140 Q 85 110, 100 120 T 130 110" stroke="white" stroke-width="6" stroke-linecap="round" fill="none" opacity="0.6"/>
  
  <!-- Dollar sign integrated into trail -->
  <g transform="translate(100, 60)">
    <!-- Dollar sign -->
    <path d="M 0 -15 L 0 35" stroke="white" stroke-width="4" stroke-linecap="round"/>
    <path d="M -10 -5 Q -10 -12, -3 -12 L 3 -12 Q 10 -12, 10 -5 Q 10 2, 3 2 L -3 2" 
          stroke="white" stroke-width="3" fill="none" stroke-linecap="round"/>
    <path d="M 10 15 Q 10 22, 3 22 L -3 22 Q -10 22, -10 15 Q -10 8, -3 8 L 3 8" 
          stroke="white" stroke-width="3" fill="none" stroke-linecap="round"/>
  </g>
  
  <!-- Decorative dots (like footprints on a trail) -->
  <circle cx="50" cy="130" r="3" fill="white" opacity="0.7"/>
  <circle cx="45" cy="145" r="2.5" fill="white" opacity="0.6"/>
  <circle cx="150" cy="90" r="3" fill="white" opacity="0.7"/>
  <circle cx="155" cy="100" r="2.5" fill="white" opacity="0.6"/>
  
  <!-- Gradient definition -->
  <defs>
    <linearGradient id="gradient" x1="0%" y1="0%" x2="100%" y2="100%">
      <stop offset="0%" style="stop-color:#6366f1;stop-opacity:1" />
      <stop offset="100%" style="stop-color:#8b5cf6;stop-opacity:1" />
    </linearGradient>
  </defs>
</svg>
